<svg width="23" height="23" viewBox="0 0 23 23" fill="none" xmlns="http://www.w3.org/2000/svg">
<path d="M21.5625 11.4371C21.5625 11.3877 21.5625 11.3316 21.5603 11.2664C21.558 11.0845 21.5535 10.8801 21.549 10.6622C21.5311 10.0356 21.4996 9.41115 21.4502 8.82267C21.3828 8.01183 21.284 7.33575 21.1492 6.82814C21.007 6.29839 20.7282 5.81526 20.3408 5.42702C19.9533 5.03877 19.4708 4.75903 18.9413 4.61573C18.3057 4.44503 17.0613 4.33947 15.3094 4.27433C14.4761 4.24288 13.5844 4.22267 12.6927 4.21144C12.3805 4.20695 12.0907 4.2047 11.8302 4.20245H11.1698C10.9093 4.2047 10.6195 4.20695 10.3073 4.21144C9.41562 4.22267 8.52393 4.24288 7.69062 4.27433C5.93867 4.34171 4.69209 4.44728 4.05869 4.61573C3.52906 4.75868 3.04631 5.0383 2.6588 5.4266C2.27129 5.8149 1.99264 6.29822 1.85078 6.82814C1.71377 7.33575 1.61719 8.01183 1.5498 8.82267C1.50039 9.41115 1.46895 10.0356 1.45098 10.6622C1.44424 10.8801 1.44199 11.0845 1.43975 11.2664C1.43975 11.3316 1.4375 11.3877 1.4375 11.4371V11.5629C1.4375 11.6123 1.4375 11.6685 1.43975 11.7336C1.44199 11.9155 1.44648 12.1199 1.45098 12.3378C1.46895 12.9645 1.50039 13.5889 1.5498 14.1774C1.61719 14.9882 1.71602 15.6643 1.85078 16.1719C2.13828 17.2478 2.98281 18.0968 4.05869 18.3843C4.69209 18.555 5.93867 18.6606 7.69062 18.7257C8.52393 18.7571 9.41562 18.7774 10.3073 18.7886C10.6195 18.7931 10.9093 18.7953 11.1698 18.7976H11.8302C12.0907 18.7953 12.3805 18.7931 12.6927 18.7886C13.5844 18.7774 14.4761 18.7571 15.3094 18.7257C17.0613 18.6583 18.3079 18.5527 18.9413 18.3843C20.0172 18.0968 20.8617 17.25 21.1492 16.1719C21.2862 15.6643 21.3828 14.9882 21.4502 14.1774C21.4996 13.5889 21.5311 12.9645 21.549 12.3378C21.5558 12.1199 21.558 11.9155 21.5603 11.7336C21.5603 11.6685 21.5625 11.6123 21.5625 11.5629V11.4371ZM19.9453 11.5539C19.9453 11.6011 19.9453 11.6527 19.9431 11.7134C19.9408 11.8886 19.9363 12.0818 19.9318 12.2906C19.9161 12.8881 19.8847 13.4856 19.8375 14.0403C19.7769 14.7636 19.6915 15.3566 19.5859 15.7541C19.4467 16.273 19.0379 16.684 18.5213 16.821C18.0496 16.9468 16.8614 17.0479 15.2465 17.1085C14.4289 17.14 13.5484 17.1602 12.6702 17.1714C12.3625 17.1759 12.0772 17.1781 11.8212 17.1781H11.1788L10.3298 17.1714C9.45156 17.1602 8.57334 17.14 7.75352 17.1085C6.13857 17.0456 4.94814 16.9468 4.47871 16.821C3.96211 16.6818 3.55332 16.273 3.41406 15.7541C3.3085 15.3566 3.22314 14.7636 3.1625 14.0403C3.11533 13.4856 3.08613 12.8881 3.06816 12.2906C3.06143 12.0818 3.05918 11.8863 3.05693 11.7134C3.05693 11.6527 3.05469 11.5988 3.05469 11.5539V11.4461C3.05469 11.3989 3.05469 11.3473 3.05693 11.2866C3.05918 11.1114 3.06367 10.9183 3.06816 10.7094C3.08389 10.1119 3.11533 9.51447 3.1625 8.95968C3.22314 8.23644 3.3085 7.64347 3.41406 7.24591C3.55332 6.72706 3.96211 6.31603 4.47871 6.17902C4.95039 6.05324 6.13857 5.95216 7.75352 5.89152C8.57109 5.86007 9.45156 5.83986 10.3298 5.82863C10.6375 5.82413 10.9228 5.82189 11.1788 5.82189H11.8212L12.6702 5.82863C13.5484 5.83986 14.4267 5.86007 15.2465 5.89152C16.8614 5.95441 18.0519 6.05324 18.5213 6.17902C19.0379 6.31827 19.4467 6.72706 19.5859 7.24591C19.6915 7.64347 19.7769 8.23644 19.8375 8.95968C19.8847 9.51447 19.9139 10.1119 19.9318 10.7094C19.9386 10.9183 19.9408 11.1137 19.9431 11.2866C19.9431 11.3473 19.9453 11.4012 19.9453 11.4461V11.5539ZM9.50098 14.5098L14.7119 11.4776L9.50098 8.49025V14.5098Z" fill="black"/>
</svg>
